<svg id="Capa_1" enable-background="new 0 0 497 497" height="512" viewBox="0 0 497 497" width="512" xmlns="http://www.w3.org/2000/svg"><g><g><path d="m202.771 420.904v61.096c0 8.284 6.716 15 15 15s15-6.716 15-15l10-28.985-10-32.111z" fill="#ffbf9d"/><path d="m232.771 420.904v61.096c0 8.284 6.716 15 15 15s15-6.716 15-15v-61.096z" fill="#ffd4bd"/></g><g><path d="m66.754 166.257v39.455c0 5.557-2.207 9.652-6.137 13.581-8.182 8.182-8.182 21.449 0 29.631l7.531 7.531c11.857 11.857 11.857 31.082 0 42.939-11.857 11.857-11.857 31.082 0 42.939 17.714 17.715 41.739 27.667 66.79 27.667h95.384v-203.743z" fill="#bd7669"/><path d="m397.392 299.395c-11.857-11.857-11.857-31.082 0-42.939l7.531-7.531c8.182-8.182 8.182-21.449 0-29.631-3.929-3.929-6.137-8.025-6.137-13.581v-54.345c0-73.181-56.348-119.846-116.65-119.846h-51.813v338.478h100.28c25.051 0 49.076-9.951 66.789-27.665 11.858-11.858 11.858-31.082 0-42.94z" fill="#d6948c"/></g><g><path d="m291.082 401.999c-8.163-36.423-8.163-36.423-8.163-36.423l-50.149-47.551-14.54 13.786v89.092l44.536 8.901c6.685-1.459 13.29-3.404 19.756-5.85 8.622-3.261 10.662-12.574 8.56-21.955z" fill="#efedff"/><path d="m232.771 389.615v-71.589l-50.149 47.551-8.163 36.423c-2.104 9.386-.057 18.696 8.559 21.956 25.58 9.679 53.303 11.623 79.749 5.85-17.793-5.281-29.996-21.631-29.996-40.191z" fill="#d4d4ff"/></g><g><path d="m246.209 294.673h-23.438v36.14l10 5.237c7.043 0 14.086-1.76 20.448-5.28l23.029-12.744c-6.277-10.982-16.86-19.952-30.039-23.353z" fill="#ffd4bd"/><path d="m246.209 294.673c-12.276-3.168-26.407-1.863-37.124 3.954-8.25 4.479-15.119 11.223-19.791 19.398 1.644.91 11.854 6.56 23.029 12.744 6.361 3.52 13.405 5.28 20.448 5.28v-8.487c0-12.306 4.833-24.108 13.438-32.889z" fill="#ffbf9d"/></g><g><path d="m191.135 396.496c8.066 1.769 16.045-3.314 17.851-11.371l3.637-16.228v-37.974c-.099-.054-.201-.099-.299-.153-11.175-6.184-21.384-11.834-23.029-12.744-4.24 7.42-6.672 16.019-6.672 25.182v22.369l-2.911 12.988c-1.818 8.109 3.305 16.151 11.423 17.931z" fill="#ffbf9d"/><path d="m285.83 378.564-2.91-12.986c0-.002 0-.002 0-.002v-22.369c0-9.163-2.432-17.762-6.672-25.182l-23.029 12.744c-.099.055-.2.1-.299.153v37.974l3.637 16.228c1.806 8.058 9.785 13.141 17.851 11.371 8.116-1.779 13.24-9.821 11.422-17.931z" fill="#ffd4bd"/></g><path d="m232.771 343.589c-8.271 0-16.539-2.085-24.079-6.258l-23.034-12.747c-3.624-2.006-4.936-6.57-2.93-10.194 2.005-3.624 6.571-4.936 10.193-2.93l23.034 12.747c10.528 5.827 23.103 5.826 33.631 0l23.034-12.747c3.625-2.006 8.188-.694 10.194 2.931 2.005 3.624.693 8.188-2.931 10.193l-23.034 12.747c-7.537 4.172-15.81 6.258-24.078 6.258z" fill="#d4d4ff"/><g><path d="m255.104 33.11h-16.286c-30.101 0-57.877 16.189-72.711 42.382l-51.271 90.525 51.27 90.52c14.835 26.191 42.61 42.38 72.71 42.38h16.288c63.858-10.674 112.415-66.143 112.415-132.9 0-66.812-48.624-122.266-112.415-132.907z" fill="#ffd4bd"/><path d="m142.69 166.017c0-66.811 48.626-122.265 112.414-132.907-7.265-1.212-14.726-1.842-22.334-1.842-74.417 0-134.747 60.329-134.747 134.75 0 74.587 60.522 134.747 134.747 134.747 7.609 0 15.07-.633 22.334-1.847-63.788-10.643-112.414-66.092-112.414-132.901z" fill="#ffbf9d"/></g><ellipse cx="305.492" cy="211.925" fill="#ff8e9e" rx="22" ry="17.5"/><g fill="#313d40"><path d="m247.916 198.706c-3.735-1.786-8.214-.206-10.001 3.532-.923 1.932-2.942 3.18-5.145 3.18s-4.222-1.248-5.145-3.18c-1.787-3.737-6.268-5.318-10.001-3.532-3.737 1.787-5.318 6.264-3.532 10.001 3.4 7.113 10.732 11.71 18.678 11.71s15.277-4.597 18.678-11.71c1.786-3.737.205-8.214-3.532-10.001z"/><path d="m300.703 186.023c-3.123-2.722-7.859-2.396-10.582.726-1.099 1.26-2.683 1.983-4.346 1.983-1.664 0-3.247-.723-4.345-1.982-2.722-3.124-7.46-3.45-10.582-.728-3.123 2.721-3.449 7.458-.729 10.582 3.947 4.53 9.653 7.129 15.655 7.129 6 0 11.706-2.598 15.654-7.128 2.723-3.123 2.398-7.861-.725-10.582z"/></g><ellipse cx="160.358" cy="211.925" fill="#ff8e9e" rx="22" ry="17.5"/><g><path d="m246.768 25.326 13.493 41.076c15.537 42.799 57.734 69.96 103.125 66.377v-62.391z" fill="#d6948c"/><path d="m294.561 39.166c-.031-17.588-12.612-32.728-29.875-36.095-6.515-1.271-13.167-2.155-19.93-2.638h-4.389c-29.267 0-57.587 10.37-79.933 29.27l-48.659 41.154v119.767l26.058 14.582c12.862-.712 25.335-2.881 37.253-6.355 69.033-20.123 119.476-83.863 119.476-159.392-.001-.098-.001-.195-.001-.293z" fill="#d6948c"/><path d="m244.756.433c-4.343-.311-8.732-.46-13.161-.429-91.438.634-164.84 75.855-164.84 167.295v38.174h61.789c2.812 0 5.607-.075 8.385-.213-12.53-20.459-19.756-44.518-19.756-70.267 0-72.017 56.496-130.836 127.583-134.56z" fill="#bd7669"/></g><g><path d="m436.244 115.67-6.33-1.696 1.696-6.331c1.17-4.365-1.29-8.931-5.618-10.236-6.071-1.83-12.854-1.246-18.779 2.175-3.015 1.741-6.203 4.444-9.141 7.69 1.854-4.949 2.909-9.975 2.909-14.111 0-6.841-2.886-13.008-7.506-17.351-3.293-3.095-8.478-2.942-11.674.253l-4.634 4.634-4.634-4.634c-3.196-3.196-8.38-3.349-11.674-.253-4.62 4.343-7.506 10.51-7.506 17.351 0 3.794.889 8.339 2.467 12.886-2.609-2.7-5.368-4.949-7.995-6.465-5.925-3.421-12.708-4.005-18.779-2.175-4.327 1.304-6.787 5.871-5.618 10.236l1.696 6.331-6.331 1.696c-4.365 1.17-7.09 5.584-6.056 9.983 1.451 6.172 5.348 11.755 11.273 15.176 4.933 2.848 12.332 4.809 19.669 5.193-4.662 2.163-8.819 4.903-11.669 7.752-4.838 4.838-7.157 11.239-6.961 17.577.14 4.517 3.914 8.075 8.433 8.075h6.554v6.554c0 4.519 3.558 8.294 8.076 8.434 6.338.196 12.739-2.123 17.577-6.961 5.102-5.102 9.854-14.393 11.569-23.277 1.715 8.884 6.467 18.175 11.569 23.277 4.838 4.838 11.239 7.157 17.577 6.961 4.517-.14 8.075-3.914 8.075-8.434v-6.554h6.554c4.52 0 8.293-3.558 8.433-8.075.196-6.338-2.123-12.739-6.961-17.577-2.84-2.84-6.978-5.57-11.621-7.729 7.491-.323 15.102-2.306 20.141-5.216 5.925-3.42 9.822-9.003 11.273-15.176 1.036-4.4-1.689-8.813-6.054-9.983z" fill="#efedff"/><circle cx="377.519" cy="132" fill="#ff8e9e" r="15"/></g></g></svg>